<svg width="40" height="40" viewBox="0 0 40 40" fill="none" xmlns="http://www.w3.org/2000/svg">
<path d="M20 28L27.2333 26.0271C27.4917 25.9751 27.75 25.7154 27.75 25.4039V12.4233C27.75 12.1637 27.5433 11.9561 27.2333 12.008L20 13.981" stroke="#6C6B80" stroke-width="1.5" stroke-miterlimit="10" stroke-linecap="round" stroke-linejoin="round"/>
<path d="M20 13.9844L20 27.4842" stroke="#4F46E5" stroke-width="1.5" stroke-miterlimit="10" stroke-linecap="round" stroke-linejoin="round"/>
<path d="M20 28L12.7667 26.0271C12.5083 25.9751 12.25 25.7154 12.25 25.4039V12.4233C12.25 12.1637 12.4567 11.9561 12.7667 12.008L20 13.981" fill="#6C6B80"/>
<path d="M20 28L12.7667 26.0271C12.5083 25.9751 12.25 25.7154 12.25 25.4039V12.4233C12.25 12.1637 12.4567 11.9561 12.7667 12.008L20 13.981" stroke="#6C6B80" stroke-width="1.5" stroke-miterlimit="10" stroke-linecap="round" stroke-linejoin="round"/>
<path d="M14.3203 15.9062L17.937 16.6331" stroke="#EEF2FF" stroke-width="1.5" stroke-miterlimit="10" stroke-linecap="round" stroke-linejoin="round"/>
<path d="M14.3203 18.5L16.387 18.9153" stroke="#EEF2FF" stroke-width="1.5" stroke-miterlimit="10" stroke-linecap="round" stroke-linejoin="round"/>
</svg>
